<?xml version="1.0" encoding="UTF-8"?>
<svg version="1.1" xmlns="http://www.w3.org/2000/svg" width="48" height="48">
<path d="M0 0 C0.91765137 -0.00315216 1.83530273 -0.00630432 2.78076172 -0.009552 C4.27760498 -0.00651566 4.27760498 -0.00651566 5.8046875 -0.00341797 C6.82191895 -0.00437469 7.83915039 -0.00533142 8.88720703 -0.00631714 C11.04264386 -0.00699908 13.19808272 -0.00514382 15.35351562 -0.00097656 C18.66541121 0.00437148 21.97717117 -0.0009211 25.2890625 -0.00732422 C27.37760447 -0.00666344 29.46614635 -0.00538228 31.5546875 -0.00341797 C32.55258301 -0.0054422 33.55047852 -0.00746643 34.57861328 -0.009552 C35.49626465 -0.00639984 36.41391602 -0.00324768 37.359375 0 C38.17132324 0.00079559 38.98327148 0.00159119 39.81982422 0.00241089 C41.6796875 0.12939453 41.6796875 0.12939453 42.6796875 1.12939453 C42.77782737 2.56679806 42.8076703 4.0089578 42.80908203 5.44970703 C42.81223419 6.3673584 42.81538635 7.28500977 42.81863403 8.23046875 C42.8166098 9.22836426 42.81458557 10.22625977 42.8125 11.25439453 C42.81345673 12.27162598 42.81441345 13.28885742 42.81539917 14.33691406 C42.81608111 16.49235089 42.81422585 18.64778975 42.81005859 20.80322266 C42.80471055 24.11511824 42.81000313 27.4268782 42.81640625 30.73876953 C42.81574547 32.8273115 42.81446431 34.91585338 42.8125 37.00439453 C42.81452423 38.00229004 42.81654846 39.00018555 42.81863403 40.02832031 C42.81390579 41.40479736 42.81390579 41.40479736 42.80908203 42.80908203 C42.80828644 43.62103027 42.80749084 44.43297852 42.80667114 45.26953125 C42.6796875 47.12939453 42.6796875 47.12939453 41.6796875 48.12939453 C40.24228397 48.2275344 38.80012423 48.25737733 37.359375 48.25878906 C36.44172363 48.26194122 35.52407227 48.26509338 34.57861328 48.26834106 C33.58071777 48.26631683 32.58282227 48.2642926 31.5546875 48.26220703 C30.53745605 48.26316376 29.52022461 48.26412048 28.47216797 48.2651062 C26.31673114 48.26578814 24.16129228 48.26393288 22.00585938 48.25976562 C18.69396379 48.25441758 15.38220383 48.25971016 12.0703125 48.26611328 C9.98177053 48.2654525 7.89322865 48.26417135 5.8046875 48.26220703 C4.30784424 48.26524338 4.30784424 48.26524338 2.78076172 48.26834106 C1.86311035 48.2651889 0.94545898 48.26203674 0 48.25878906 C-0.81194824 48.25799347 -1.62389648 48.25719788 -2.46044922 48.25637817 C-4.3203125 48.12939453 -4.3203125 48.12939453 -5.3203125 47.12939453 C-5.41845237 45.691991 -5.4482953 44.24983126 -5.44970703 42.80908203 C-5.45285919 41.89143066 -5.45601135 40.9737793 -5.45925903 40.02832031 C-5.4572348 39.0304248 -5.45521057 38.0325293 -5.453125 37.00439453 C-5.45408173 35.98716309 -5.45503845 34.96993164 -5.45602417 33.921875 C-5.45670611 31.76643817 -5.45485085 29.61099931 -5.45068359 27.45556641 C-5.44533555 24.14367082 -5.45062813 20.83191086 -5.45703125 17.52001953 C-5.45637047 15.43147756 -5.45508931 13.34293568 -5.453125 11.25439453 C-5.45514923 10.25649902 -5.45717346 9.25860352 -5.45925903 8.23046875 C-5.45610687 7.31281738 -5.45295471 6.39516602 -5.44970703 5.44970703 C-5.44891144 4.63775879 -5.44811584 3.82581055 -5.44729614 2.98925781 C-5.19980067 -0.63567946 -3.13121827 0.00306815 0 0 Z M4.6796875 16.12939453 C1.04092712 20.90097653 1.32253743 27.41499339 1.6796875 33.12939453 C4.5128037 34.75446649 4.5128037 34.75446649 7.6796875 36.12939453 C8.6696875 35.79939453 9.6596875 35.46939453 10.6796875 35.12939453 C9.6896875 33.80939453 8.6996875 32.48939453 7.6796875 31.12939453 C8.4634375 31.45939453 9.2471875 31.78939453 10.0546875 32.12939453 C17.56119587 34.20015546 23.80041159 33.71858196 30.6796875 30.12939453 C30.6796875 30.78939453 30.6796875 31.44939453 30.6796875 32.12939453 C28.6996875 33.11939453 28.6996875 33.11939453 26.6796875 34.12939453 C27.3396875 34.78939453 27.9996875 35.44939453 28.6796875 36.12939453 C32.42635952 34.49660943 32.42635952 34.49660943 35.6796875 32.12939453 C36.05533743 26.7763831 36.21191009 20.5163532 32.6796875 16.12939453 C27.78518133 14.24689216 23.33013393 13.85800808 18.1171875 13.87939453 C16.85777344 13.87423828 15.59835938 13.86908203 14.30078125 13.86376953 C10.6923305 14.12846711 7.96998912 14.63204077 4.6796875 16.12939453 Z " fill="#784FF2" transform="translate(5.3203125,-0.12939453125)"/>
<path d="M0 0 C2.5 0.125 2.5 0.125 3.5 1.125 C3.625 3.625 3.625 3.625 3.5 6.125 C2.5 7.125 2.5 7.125 0 7.25 C-2.5 7.125 -2.5 7.125 -3.5 6.125 C-3.625 3.625 -3.625 3.625 -3.5 1.125 C-2.5 0.125 -2.5 0.125 0 0 Z " fill="#724CF3" transform="translate(29.5,21.875)"/>
<path d="M0 0 C1.67542976 0.28604898 3.34385343 0.61781233 5 1 C5.38218767 2.65614657 5.71395102 4.32457024 6 6 C5 7 5 7 2.5 7.125 C0 7 0 7 -1 6 C-1.125 3.5 -1.125 3.5 -1 1 C-0.67 0.67 -0.34 0.34 0 0 Z " fill="#7850F1" transform="translate(16,22)"/>
</svg>
